<svg id="Layer_1" data-name="Layer 1" xmlns="http://www.w3.org/2000/svg" viewBox="0 0 488.48 357.57">
    <defs>
        <style>
            .cls-1 {
                fill: #fff;
                stroke: #fff;
                stroke-miterlimit: 10;
            }
        </style>
    </defs>
    <title>culture</title><path
        class="cls-1"
        d="M481,298.14a8.42,8.42,0,0,0-10.12,6.55L251.19,4.07v-.6l-.6-.6-.6-.6-.6-.6h-.6l-.6-.6a.58.58,0,0,1-.6-.6h-6.55a.58.58,0,0,0-.6.6.58.58,0,0,0-.6.6h-.6l-.6.6-.6.6-.6.6-.6.6L17.84,304.69c-1.19-4.76-6-7.74-10.12-6.55A9.79,9.79,0,0,0,.58,308.86l7.74,39.29c.6,4.17,4.76,7.14,8.93,7.14H19a9.79,9.79,0,0,0,7.14-10.72l-3-16.07,60.72-83.34a192.92,192.92,0,0,1-3,98.82v6.55a9111433.16,9111433.16,0,0,0,1.19,1.19l.6.6.6.6.6.6.6.6.6.6a10022558.1,10022558.1,0,0,0,1.19,1.19h.6c.6,0,1.79.6,2.38.6H194.64a3.58,3.58,0,0,0,2.38-.6h.6a4.51,4.51,0,0,0,2.38-1.19h0l1.79-1.79h0c.6-.6.6-1.19,1.19-2.38h0L244,217.18l41.07,133.34h0a4.51,4.51,0,0,0,1.19,2.38v.6l1.79,1.79h0c.6.6,1.19.6,2.38,1.19h.6c.6,0,1.79.6,2.38.6H398.82a3.58,3.58,0,0,0,2.38-.6h.6a5011229.41,5011229.41,0,0,1,1.19-1.19l.6-.6.6-.6.6-.6.6-.6.6-.6a5011229.41,5011229.41,0,0,1,1.19-1.19v-6a192.92,192.92,0,0,1-3-98.82l60.72,83.34-3,16.07c-1.19,4.76,2.38,9.52,7.14,10.72h1.79a9.48,9.48,0,0,0,8.93-7.14L487.51,310C489.3,303.5,485.73,298.74,481,298.14Zm-89.89-69.05c-.6,1.79-17.86,47.62-3.57,108.34H300.6L253,182.66h0v-.6c0-.6,0-.6-.6-1.19l-.6-.6a.58.58,0,0,0-.6-.6l-.6-.6-.6-.6-.6-.6-.6-.6c-.6,0-.6-.6-1.19-.6H247a2.19,2.19,0,0,1-1.79-.6h-1.79a2.19,2.19,0,0,0-1.79.6h0a10022455.44,10022455.44,0,0,1-1.19,1.19,16925497498690,16925497498690,0,0,1-1.19,1.19l-.6.6-.6.6-.6.6-.6.6c0,.6-.6.6-.6,1.19v.6h0L188.68,338h-88.1c14.29-61.31-2.38-107.15-3-108.94,0-.6-.6-1.19-.6-1.79L244.64,24.91,392.27,227.3C391.67,227.9,391.08,228.49,391.08,229.09Z"/></svg>
