<svg id="Layer_1" data-name="Layer 1" xmlns="http://www.w3.org/2000/svg" viewBox="0 0 325.78 261.38">
    <defs>
        <style>
            .cls-1 {
            fill: #fff;
                stroke: #fff;
                stroke-miterlimit: 10;
                stroke-width: 3px;
            }
        </style>
    </defs>
    <title>education</title><path
        class="cls-1"
        d="M321.17,97.93,166.32,2.48a6.5,6.5,0,0,0-6.85,0L4.61,97.93a6.53,6.53,0,0,0,0,11.13l69.75,43v28.34a46.89,46.89,0,0,0,22.17,39.7l62.93,38.8a6.55,6.55,0,0,0,6.86,0l62.94-38.8a46.91,46.91,0,0,0,22.17-39.7V152.07l24.41-15v43.3a32.46,32.46,0,0,0,32.43,32.42,6.53,6.53,0,1,0,0-13.07,19.38,19.38,0,0,1-19.36-19.35V129l32.26-19.89a6.53,6.53,0,0,0,0-11.13Zm-82.81,82.48h0a33.73,33.73,0,0,1-16,28.56l-59.51,36.7L103.39,209a33.71,33.71,0,0,1-15.95-28.56V160.13l72,44.41a6.55,6.55,0,0,0,6.86,0l72-44.41ZM162.89,191.3,20.5,103.49,162.89,15.72l142.4,87.78Z"/></svg>
