<svg id="Layer_1" data-name="Layer 1" xmlns="http://www.w3.org/2000/svg" viewBox="0 0 287.93 513.74">
    <title>energy</title><path fill="#fff"
        d="M69.56,513.74a10.81,10.81,0,0,1-4.37-1,9.88,9.88,0,0,1-5.36-11.11l44.05-198.82L6.46,266.11A10,10,0,0,1,.3,259.36a10.35,10.35,0,0,1,2-8.93L210.83,3.59a9.9,9.9,0,0,1,17.26,8.53L184,210.94l97.43,36.71a10,10,0,0,1,6.15,6.75,10.35,10.35,0,0,1-2,8.93L77.1,510.37A10.25,10.25,0,0,1,69.56,513.74ZM26.5,252.61l92.27,34.72a9.87,9.87,0,0,1,6.15,11.51L87.81,466.71,261.24,261.34,169,226.62a9.87,9.87,0,0,1-6.15-11.51L199.92,47.24Z"/></svg>
