<svg id="Layer_1" data-name="Layer 1" xmlns="http://www.w3.org/2000/svg" viewBox="0 0 412 404.09"><title>google</title><g id="google-plus-icon"><path d="M412,87.39H357.38V142H330.07V87.39H275.45V60.08h54.62V5.46h27.31V60.08H412ZM257.58,313.31c0,40.94-37.38,90.79-131.43,90.79C57.36,404.09,0,374.43,0,324.53,0,286,24.38,236,138.32,236c-16.92-13.79-21.07-33.08-10.73-54-66.71,0-100.88-39.22-100.88-89C26.71,44.3,63,0,136.86,0h118.4L228.8,27.77H197.72c21.93,12.56,33.59,38.43,33.59,66.95,0,26.18-14.41,47.38-35,63.28-36.5,28.22-27.16,44,11.09,71.87C245.12,258.12,257.58,279.93,257.58,313.31ZM183.74,96.5c-5.51-41.9-32.81-76.28-64.7-77.24s-53.31,31.12-47.8,73,35.83,71.18,67.75,72.14S189.24,138.41,183.74,96.5Zm32.89,221c0-34.47-31.44-67.32-84.19-67.32-47.54-.52-87.83,30-87.83,65.47,0,36.15,34.34,66.25,81.88,66.25C187.27,381.91,216.63,353.66,216.63,317.51Z"/></g></svg>