<svg id="Layer_1" data-name="Layer 1" xmlns="http://www.w3.org/2000/svg" viewBox="0 0 452.03 416.48">
    <path
        fill="#fff"
        class="cls-1"
        d="M246.46,251.7a62.31,62.31,0,0,0,8.13.6,85.45,85.45,0,0,0,85.35-85.35,84.52,84.52,0,0,0-30.85-65.3A77.24,77.24,0,0,0,310,90,85.45,85.45,0,0,0,224.66,4.64a83.2,83.2,0,0,0-38.46,9.53A85.11,85.11,0,0,0,58.09,87.35,85.12,85.12,0,0,0,87.85,252.29a63,63,0,0,0,8.11-.6,85.55,85.55,0,0,0,69,45.06V404.24a6.24,6.24,0,1,0,12.49,0V296.75A85.51,85.51,0,0,0,246.46,251.7Zm-75.26,33a73,73,0,0,1-66-42.46,6.48,6.48,0,0,0-5.87-3.59,6.57,6.57,0,0,0-1,.07,71.05,71.05,0,0,1-10.54,1.07A72.63,72.63,0,0,1,66.54,97.65a6.22,6.22,0,0,0,4.41-6.26c0-.78-.13-1.52-.23-2.28a8.79,8.79,0,0,1-.13-1.27A72.64,72.64,0,0,1,182.64,26.62a6.3,6.3,0,0,0,6.44.18,71.7,71.7,0,0,1,35.58-9.67,72.15,72.15,0,0,1,71.51,86,6.25,6.25,0,0,0,2.36,6.08A72.6,72.6,0,0,1,254.6,239.8a73.91,73.91,0,0,1-10.8-1.11,6.23,6.23,0,0,0-6.59,3.55A73,73,0,0,1,171.21,284.7Zm45.38-67.81a6.27,6.27,0,0,0-8.29,3c-.38.82-9.61,19.89-34.94,19.89-25.75,0-41.37-28.48-41.53-28.77a6.25,6.25,0,0,0-11,5.89c.77,1.44,19.25,35.37,52.55,35.37,33.57,0,45.8-26.06,46.3-27.17A6.23,6.23,0,0,0,216.59,216.88Zm41-5.1a6.37,6.37,0,0,0,1.36-.15c19.26-4.31,32.47-12.7,39.24-25,8.66-15.69,3.17-31.61,2.93-32.27a6.24,6.24,0,1,0-11.76,4.17c0,.13,3.78,11.41-2.1,22-5,9-15.41,15.32-31,18.81a6.25,6.25,0,0,0,1.36,12.35ZM151.09,57.19a6.3,6.3,0,0,0,6.73-5.71,6.24,6.24,0,0,0-5.71-6.73c-26.86-2.26-44.56,12.91-52.44,45-.23.94-.4,1.7-.56,2.24a6.25,6.25,0,0,0,9.16,8.11c2.11-1.58,2.61-3.64,3.54-7.37C116.16,75,124.41,55,151.09,57.19ZM449.22,405.78l-21.91-66.84h6.6a6.24,6.24,0,1,0,0-12.49H240.45a6.24,6.24,0,0,0,0,12.49h8.94l-21.91,66.85a6.25,6.25,0,0,0,11.88,3.88l23.18-70.73h151.6l23.19,70.74a6.26,6.26,0,0,0,5.94,4.29,6.36,6.36,0,0,0,2-.3A6.27,6.27,0,0,0,449.22,405.78Zm-52.83-43H276.8a6.24,6.24,0,0,0,0,12.49h11.33v30.1a6.24,6.24,0,1,0,12.49,0v-30.1h75.44v30.1a6.24,6.24,0,1,0,12.49,0v-30.1h7.83a6.24,6.24,0,0,0,0-12.49Z"/></svg>
