<svg id="Layer_1" data-name="Layer 1" xmlns="http://www.w3.org/2000/svg" viewBox="0 0 404.25 433.46">
    <defs>
        <style>
            .cls-1 {
                stroke: #fff;
                stroke-miterlimit: 10;
                stroke-width: 3px;
                fill: #fff;
            }
        </style>
    </defs>
    <title>health</title><path
        class="cls-1"
        d="M241.46,251.48a9,9,0,0,0,5.55,0c6.26-2,153.28-51.31,153.28-160.71A89.3,89.3,0,0,0,244.2,31.52a89.25,89.25,0,0,0-156,59.25C88.18,200.17,235.21,249.43,241.46,251.48Zm-64-232.12a71.5,71.5,0,0,1,59.36,31.71A8.92,8.92,0,0,0,244.21,55a9.41,9.41,0,0,0,7.42-4A71.44,71.44,0,0,1,382.43,90.77c0,88.82-118.42,135.57-138.19,142.75C224.46,226.34,106,179.6,106,90.77A71.5,71.5,0,0,1,177.45,19.36Zm223.31,300c-5.32-15.53-21.7-28.85-46.56-23.54L252,320.62a38.43,38.43,0,0,0-19.64-25l-.63-.33c-25.44-13.1-87.21-43.59-111.16-43.59-13,0-29.56,3.38-47.06,7C53.09,262.88,32,267.2,13.1,267.2a8.93,8.93,0,1,0,0,17.86c20.7,0,43.7-4.72,64-8.87,16.6-3.4,32.28-6.61,43.48-6.61,13.49,0,53.91,16.33,103,41.61l.65.34c10.57,5.44,12.94,17.47,9.81,26-3.82,10.44-14.45,14.76-28.47,11.54-48.93-11.23-70.38-18.29-70.59-18.36a8.93,8.93,0,0,0-5.64,16.95c.89.29,22.3,7.35,72.22,18.81A56.92,56.92,0,0,0,214.41,368c20,0,31.93-12.23,36.37-24.35a39.7,39.7,0,0,0,1.36-4.7l106-25.7c14.86-3.17,23,4.07,25.69,11.91,3.11,9.13-.29,21.5-14.93,28.54l-3,1.45c-106.25,51.09-122.58,58.93-164.22,58.93-12.9,0-36.57-6.69-61.62-13.77-34.87-9.86-74.4-21-106-21H10.43a8.93,8.93,0,1,0,0,17.86H34c29.14,0,67.41,10.81,101.17,20.36,27.42,7.76,51.1,14.44,66.47,14.44,45.71,0,65-9.27,172-60.7l3-1.45C401.05,358.08,406.25,335.46,400.76,319.39Z"/></svg>
