<svg id="Layer_1" data-name="Layer 1" xmlns="http://www.w3.org/2000/svg" viewBox="0 0 595.2 427.68">
    <title>it</title>
    <path
        fill="#fff"
        d="M534.57,190.65h0a11.64,11.64,0,0,1-8.18-3.38,323.54,323.54,0,0,0-457.64,0,11.92,11.92,0,0,1-16.34,0L3.35,138.22a11.65,11.65,0,0,1,0-16.34C81.9,43.28,186.39,0,297.59,0S513.21,43.3,591.85,121.88a11.65,11.65,0,0,1,0,16.34l-49,49.06A12,12,0,0,1,534.57,190.65Zm-237-121.3a344.16,344.16,0,0,1,236.89,93.53l32.73-32.71A390.36,390.36,0,0,0,297.54,23.12c-101.09,0-196.38,37.94-269.6,107.06l32.71,32.71A344.25,344.25,0,0,1,297.54,69.35Z"/><path fill="#fff"
        d="M436.48,288.76a11.74,11.74,0,0,1-8.18-3.38,184.57,184.57,0,0,0-261.41,0,11.87,11.87,0,0,1-16.34,0l-49-49a11.59,11.59,0,0,1,0-16.37,277.07,277.07,0,0,1,392.1,0,11.64,11.64,0,0,1,0,16.37l-49,49a11.11,11.11,0,0,1-8.09,3.38Zm-138.94-80.7a206.56,206.56,0,0,1,138.73,53L469,228.33a254.24,254.24,0,0,0-342.9,0l32.73,32.73A206.5,206.5,0,0,1,297.54,208.06Z"/>
        <path fill="#fff"
        d="M297.54,427.68a11.61,11.61,0,0,1-8.18-3.38l-89.93-89.9a11.61,11.61,0,0,1,0-16.34,138.63,138.63,0,0,1,196.13,0,11.61,11.61,0,0,1,0,16.34l-89.9,89.9A11.37,11.37,0,0,1,297.54,427.68Zm-73.14-101,73.14,73.14,73.17-73.14c-41.2-33.82-105.14-33.82-146.31,0Z"/>





    </svg>
