
<svg version="1.1" id="Layer_1" xmlns="http://www.w3.org/2000/svg" xmlns:xlink="http://www.w3.org/1999/xlink" x="0px" y="0px"
	 viewBox="0 0 437.6 269.7" enable-background="new 0 0 437.6 269.7" xml:space="preserve">
<g>
	<defs>
		<rect id="SVGID_1_" width="437.6" height="269.7"/>
	</defs>
	<clipPath id="SVGID_2_">
		<use xlink:href="#SVGID_1_"  overflow="visible"/>
	</clipPath>
	<path clip-path="url(#SVGID_2_)" d="M26.9,0c14.9,0,26.9,12,26.9,26.9c0,14.9-12.1,26.9-26.9,26.9S0,41.8,0,26.9C0,12,12,0,26.9,0"
		/>
	<path clip-path="url(#SVGID_2_)" d="M414.2,50.3H99.9c-12.9,0-23.4-10.5-23.4-23.4C76.5,14,87,3.5,99.9,3.5h314.3
		c12.9,0,23.4,10.5,23.4,23.4C437.6,39.8,427.1,50.3,414.2,50.3"/>
	<path clip-path="url(#SVGID_2_)" d="M26.9,107.9c14.9,0,26.9,12,26.9,26.9c0,14.9-12.1,26.9-26.9,26.9S0,149.7,0,134.8
		C0,120,12,107.9,26.9,107.9"/>
	<path clip-path="url(#SVGID_2_)" d="M414.2,158.2H99.9c-12.9,0-23.4-10.5-23.4-23.4c0-12.9,10.5-23.4,23.4-23.4h314.3
		c12.9,0,23.4,10.5,23.4,23.4C437.6,147.8,427.1,158.2,414.2,158.2"/>
	<path clip-path="url(#SVGID_2_)" d="M26.9,215.9c14.9,0,26.9,12,26.9,26.9c0,14.9-12.1,26.9-26.9,26.9S0,257.6,0,242.8
		C0,227.9,12,215.9,26.9,215.9"/>
	<path clip-path="url(#SVGID_2_)" d="M414.2,266.2H99.9c-12.9,0-23.4-10.5-23.4-23.4c0-12.9,10.5-23.4,23.4-23.4h314.3
		c12.9,0,23.4,10.5,23.4,23.4C437.6,255.7,427.1,266.2,414.2,266.2"/>
</g>
</svg>
