<svg id="Слой_1" data-name="Слой 1" xmlns="http://www.w3.org/2000/svg" viewBox="0 0 80.57 28.41">
    <defs>
        <style>
            .cls-1 {
                isolation: isolate;
            }
            .cls-2 {
                fill: #374355;
            }
            .cls-3 {
                fill: #459ddd;
            }
        </style>
    </defs>

    <g class="cls-1">
        <g class="cls-1"><path class="cls-2" d="M6.43,12.19V7.49h-3v4.7H0V.18H3.4V4.52h3V.18h3.4v12Z"/><path class="cls-2" d="M18,12.19l-.34-1.55H14.51l-.34,1.55H10.48L14,.18h4.12l3.53,12Zm-1.89-8.5-.9,4H17Z"/><path
            class="cls-2"
            d="M21.65,10.51l1.93-2.2A3.93,3.93,0,0,0,26.23,9.4c1.08,0,1.57-.45,1.57-.92s-.52-.85-1.67-.85h-2v-3H26c1,0,1.58-.27,1.58-.77S27,3,26.06,3a3.36,3.36,0,0,0-2.41,1L21.82,2a5.7,5.7,0,0,1,4.59-2C29.22,0,31,1.21,31,3.31A2.85,2.85,0,0,1,28.64,6a2.91,2.91,0,0,1,2.57,2.83c0,2.16-2,3.58-4.81,3.58A6.14,6.14,0,0,1,21.65,10.51Z"/><path
            class="cls-2"
            d="M32.45,12.19V.18h6a3,3,0,0,1,3.37,3.06,2.64,2.64,0,0,1-2,2.75A2.81,2.81,0,0,1,42,8.93a3.07,3.07,0,0,1-3.35,3.26Zm5.87-8.34a.72.72,0,0,0-.77-.77H35.86V4.66h1.69A.73.73,0,0,0,38.32,3.85Zm.2,4.57a.81.81,0,0,0-.88-.86H35.86V9.29h1.78A.8.8,0,0,0,38.52,8.43Z"/><path class="cls-2" d="M49.66,12.19l-.34-1.55H46.21l-.34,1.55H42.17L45.7.18h4.12l3.53,12Zm-1.89-8.5-.9,4h1.78Z"/></g>
        <g class="cls-1"><path class="cls-2" d="M6.1,28.19l-2-4.11L3.4,25.29v2.9H0v-12H3.4v4.68L6,16.18H9.9L6.23,21.76l3.87,6.43Z"/><path class="cls-2" d="M10.22,22.2c0-3.67,2.12-6.21,5.47-6.21s5.47,2.54,5.47,6.21S19,28.41,15.7,28.41,10.22,25.85,10.22,22.2Zm7.49,0c0-1.87-.72-3.21-2-3.21s-2,1.33-2,3.21.7,3.21,2,3.21S17.71,24,17.71,22.2Z"/><path class="cls-2" d="M31.43,28.19v-6.5l-2.2,6.5h-1.3l-2.18-6.5v6.5h-3.4v-12h4.48l1.75,5.29,1.78-5.29h4.45v12Z"/><path class="cls-2" d="M43,28.19v-9h-3v9h-3.4v-12h9.83v12Z"/><path class="cls-2" d="M54.51,28.19l-.34-1.55H51l-.34,1.55H47l3.53-12h4.12l3.53,12Zm-1.89-8.5-.9,4H53.5Z"/><path class="cls-2" d="M65.27,28.19v-4.7h-3v4.7h-3.4v-12h3.4v4.34h3V16.18h3.4v12Z"/><path class="cls-3" d="M70.4,28.19v-12h3.4v12Z"/><path class="cls-3" d="M75.42,15.61a1.52,1.52,0,1,1,0-3,1.52,1.52,0,1,1,0,3Zm.11,12.59v-12h3.4v12ZM79,15.61a1.52,1.52,0,1,1,1.53-1.53A1.52,1.52,0,0,1,79,15.61Z"/></g>
    </g>
</svg>
