<svg id="Layer_1" data-name="Layer 1" xmlns="http://www.w3.org/2000/svg" viewBox="0 0 447 537.76">
    <title>nature</title><path fill="#fff"
        d="M395.36,104.26a11.14,11.14,0,0,0-19.69,5.26c-3.63,23.2-30.07,42.69-62.25,62.14-3.07-6.24-6.29-12.43-9.8-18.51C249.09,58.68,147.36,0,38.15,0c-9.32,0-18.75.43-28,1.29a11.15,11.15,0,0,0-6.5,19.33C33.54,48,29.75,110,25.73,175.61c-7.63,124.72-17.13,279.94,190.7,308a103.11,103.11,0,0,0,13.77.93,99.87,99.87,0,0,0,14.8-1.11c17.48,18.37,40.57,36.19,71.14,53a11.15,11.15,0,0,0,10.72-19.55c-22.69-12.44-40.77-25.42-55.31-38.75a232.69,232.69,0,0,0,151-122.37A235.12,235.12,0,0,0,395.36,104.26ZM253.13,458.81c-39-47-40.3-97.19-41.44-143.08-1.33-54.13-2.6-105.25-66.43-132.52a11.15,11.15,0,0,0-8.77,20.5c50.67,21.65,51.61,59.79,52.92,112.57,1.1,44.61,2.38,96.37,37.83,145.76-2.61-.11-5.23-.18-7.83-.55C32.12,436.22,40.18,304.42,48,177c3.68-60.16,7.19-117.5-14.69-154.64,103.07-1.74,199.65,53,251,142,44.38,76.86,50.43,168.08,16.58,250.27C291.84,436.5,274.47,452.23,253.13,458.81Zm149.45-113a210.41,210.41,0,0,1-88.38,91.54A101.53,101.53,0,0,0,321.5,423c30.92-75.08,30.85-157.13,1-230.86,29.09-17.44,54.71-35.26,67.41-57.52A212.91,212.91,0,0,1,402.58,345.78Z"/></svg>
