<svg id="Layer_1" data-name="Layer 1" xmlns="http://www.w3.org/2000/svg" viewBox="0 0 483.83 568.03">
    <title>poradok</title><path fill="#fff"
        d="M241.91,568a18.28,18.28,0,0,1-9.58-2.71l-2-1.23C-12.8,416.09-.37,94.42.29,80.8A18.31,18.31,0,0,1,18.57,63.36h3.71c114.25,0,182.93-41.06,207.16-58.71C232,2.81,235.86,0,241.91,0s9.93,2.81,12.48,4.67c24.23,17.65,92.92,58.71,207.15,58.7h3.58A18,18,0,0,1,483.54,80.8c.65,13.63,13.09,335.29-230.09,483.33l-2,1.2A18.37,18.37,0,0,1,241.91,568ZM36.8,99.79c1.13,66.58,18.42,308.66,205.12,428.35C428.62,408.41,445.9,166.37,447,99.79c-104.89-3-173.49-38.36-205.12-59.22C210.29,61.43,141.69,96.76,36.8,99.79Z"/><path fill="#fff" d="M228.86,441.07A18.26,18.26,0,0,1,216,435.8c-48.18-47.49-83.82-109.41-105.94-184.06a18.32,18.32,0,0,1,35.12-10.41C165.53,310,198,366.63,241.72,409.71a18.31,18.31,0,0,1-12.86,31.36Z"/></svg>
