<svg id="Layer_1" data-name="Layer 1" xmlns="http://www.w3.org/2000/svg" viewBox="0 0 442.27 522.99">
    <title>smi</title><path fill="#fff"
        d="M0,461.68C-.06,479.06,6.08,495.22,16.88,506,28.2,517.33,44.57,523,61,523s33-5.73,44.49-17.17l54-54c13.52-13.52,40.5-14.08,53.47-1.11L233,470.87A11.91,11.91,0,1,0,249.84,454l-20.12-20.12c-22.51-22.51-64-22-87.14,1.11l-54,54c-13.39,13.39-41.62,13.49-54.91.19-6.24-6.24-9.94-16.49-9.91-27.41s3.82-21.22,10.1-27.5l22.31-22.32,16,16a11.91,11.91,0,0,0,16.44.39L322.56,215.19a12.25,12.25,0,0,0,1.35-1.5,110.19,110.19,0,0,0,11.25.61A107.14,107.14,0,0,0,410.93,31.39,107.07,107.07,0,0,0,229.79,126L18.43,358.1a11.91,11.91,0,0,0,.38,16.44l20.57,20.57L17.07,417.42C6.29,428.21.07,444.34,0,461.68ZM276.23,48.22A83.34,83.34,0,0,1,394.09,166.08,83.34,83.34,0,0,1,276.23,48.22Zm-16.84,134.7a106.82,106.82,0,0,0,36.85,24L266,234.49l-53.81-53.81,25.88-28.42A106.72,106.72,0,0,0,259.39,182.92Zm-63.22,15.38,52.24,52.24L81,403.05,43.68,365.72Z"/></svg>
