<svg id="Layer_1" data-name="Layer 1" xmlns="http://www.w3.org/2000/svg" viewBox="0 0 500.04 523.85">
    <title>social</title><path fill="#fff"
        d="M250,0C115.3,0,.85,115.55,0,249.83a11.91,11.91,0,0,0,21.39,7.25c7.58-10.12,29.41-24.93,50-24.93,21.26,0,42.66,14.62,49.85,24.74a11.91,11.91,0,0,0,19.35-.19c7.14-10.13,28.49-24.56,49.85-24.56,18.66,0,38.54,12.52,47.62,22.32V458.37c0,26.21-15.42,41.67-41.67,41.67s-41.67-15.46-41.67-41.67a11.91,11.91,0,1,0-23.81,0,12.15,12.15,0,0,0,.19,2.42c1.21,36,28.91,63.06,65.29,63.06,37.2,0,65.48-28.32,65.48-65.48V254.48c9.09-9.8,29-22.32,47.62-22.32,21.37,0,42.72,14.42,49.85,24.56a11.91,11.91,0,0,0,19.35.19c7.19-10.12,28.6-24.74,49.85-24.74,20.63,0,42.46,14.81,50,24.93A11.91,11.91,0,0,0,500,249.83C499.19,115.55,384.73,0,250,0ZM203.51,29.21c-44.31,44.64-73.07,114.58-83,194.77a86.55,86.55,0,0,0-49.11-15.63c-16.85,0-31.94,5.43-44.46,13C40.29,128.59,113,49.83,203.51,29.21Zm93,0c90.55,20.63,163.22,99.38,176.54,192.16-12.52-7.59-27.61-13-44.46-13A86.55,86.55,0,0,0,379.49,224C369.59,143.79,340.83,73.84,296.52,29.21Zm-58.41,1.49V223.42c-13-8.69-29.36-15.07-47.62-15.07a85.89,85.89,0,0,0-45.58,13.39C156.46,137.08,190.89,67,238.11,30.69Zm23.81,0c47.22,36.32,81.65,106.39,93.2,191a85.89,85.89,0,0,0-45.58-13.39c-18.27,0-34.67,6.38-47.62,15.07Z"/></svg>
