
<svg version="1.1" id="Layer_1" xmlns="http://www.w3.org/2000/svg" xmlns:xlink="http://www.w3.org/1999/xlink" x="0px" y="0px"
	 viewBox="0 0 595.3 595.3" enable-background="new 0 0 595.3 595.3" xml:space="preserve">
<g>
	<defs>
		<rect id="SVGID_1_" width="595.3" height="595.3"/>
	</defs>
	<clipPath id="SVGID_2_">
		<use xlink:href="#SVGID_1_"  overflow="visible"/>
	</clipPath>
	<path fill="#fff" clip-path="url(#SVGID_2_)" d="M297.6,0C133.5,0,0,133.5,0,297.6s133.5,297.6,297.6,297.6c164.1,0,297.6-133.5,297.6-297.6
		S461.8,0,297.6,0 M570.5,297.6c0,18.3-1.8,36.2-5.3,53.5c-14.2-95.3-64.9-177-117.5-224.3c15.7-5.7,33.1-9.8,52.4-11.9
		C543.8,163.4,570.5,227.4,570.5,297.6 M451,523.2c-26.8,18.3-57,31.9-89.4,39.7c55.7-139.7-24.1-240.8-49.4-268
		c2.1-11.1,11.6-52.7,39.8-93.2C408,256.5,484.3,364.1,451,523.2 M84.3,467.5c-17.2-21.6-31.3-45.9-41.4-72.1
		C90.3,420.9,154.2,433,215.2,433c50.2,0,98.4-8.2,133.9-23.7c6.2,23,9.3,49.4,6.1,78.7C271.7,519.7,171,512.1,84.3,467.5
		 M203.2,332.4c32.9,0,64.7-6.2,91.5-20.2c10.6,11.1,32,36.5,46.6,73.5c-78.9,35.9-236.1,30.4-309.6-26.9
		c-4.5-19.7-6.9-40.1-6.9-61.2c0-9.3,0.5-18.6,1.4-27.7C67.1,307.3,137.2,332.4,203.2,332.4 M288.5,287.3
		c-28.9,17-66.3,22.6-104,19.7C197.1,258.8,251,92,399.3,44.4c29,11.7,55.6,28.3,78.7,48.7C333.1,119.3,295.5,255,288.5,287.3
		 M361.7,32.4c-64.1,29.1-118.2,82.9-157.9,157.3c-26.2,49.1-39.1,93.8-44.2,114.2c-24.8-4.2-49.1-11.9-70.5-22
		C95.9,212.4,129.5,94.7,271,26.1c8.8-0.9,17.6-1.3,26.6-1.3C319.7,24.8,341.2,27.5,361.7,32.4 M192.2,46
		C121.6,101.3,77,179,65.6,269c-13.8-8.8-25.6-18.9-34.5-29.7C50.2,151.9,111.4,80,192.2,46 M131.4,513.8
		c37.8,12.2,76.8,18.3,115.2,18.3c35.8,0,70.9-5.4,104-16.1c-3.9,16.7-9.8,34.1-18.2,52.3c-11.4,1.4-22.9,2.2-34.7,2.2
		C235.1,570.5,177.4,549.3,131.4,513.8 M480.1,500.3C502.4,338.6,416,229.4,367.4,182c14.5-16.5,32.7-32,55.3-44
		c64.4,52.7,125.2,162,121.5,276.5C528.6,447.2,506.7,476.3,480.1,500.3"/>
</g>
</svg>
