<svg id="Layer_1" data-name="Layer 1" xmlns="http://www.w3.org/2000/svg" viewBox="0 0 471.5 597.28">
    <defs>
        <style>
            .cls-1 {
            fill: #fff;
                stroke: #fff;
                stroke-miterlimit: 10;
                stroke-width: 2px;
            }
        </style>
    </defs>
    <title>transport</title><path
        class="cls-1"
        d="M442.66,1H28.83A27.89,27.89,0,0,0,1,28.87V516.71A10.59,10.59,0,0,0,11.59,527.3H52.72v23.93a45.08,45.08,0,0,0,90.16,0V527.3H328.61v23.93a45.08,45.08,0,0,0,90.16,0V527.3h41.15a10.59,10.59,0,0,0,10.57-10.59V28.87A27.89,27.89,0,0,0,442.66,1ZM22.18,125.66h203v208h-203ZM121.7,551.23a23.9,23.9,0,0,1-47.8,0V527.3h47.8Zm275.89,0a23.9,23.9,0,0,1-47.8,0V527.3h47.8Zm51.72-45.09H22.18V354.88H449.31V506.14Zm0-172.44h-203v-208h203v208Zm0-229.22H22.18V22.22H449.31v82.26Z"/><path class="cls-1" d="M149.53,73.92H322a10.59,10.59,0,1,0,0-21.18H149.53a10.59,10.59,0,0,0,0,21.18Z"/><path class="cls-1" d="M115,475.6A45.08,45.08,0,1,0,70,430.51,45.13,45.13,0,0,0,115,475.6Zm0-69a23.89,23.89,0,1,1-23.89,23.89A23.92,23.92,0,0,1,115,406.62Z"/><path class="cls-1" d="M356.44,475.6a45.08,45.08,0,1,0-45.07-45.09A45.13,45.13,0,0,0,356.44,475.6Zm0-69a23.89,23.89,0,1,1-23.89,23.89A23.92,23.92,0,0,1,356.44,406.62Z"/></svg>
