<svg id="Слой_1" data-name="Слой 1" xmlns="http://www.w3.org/2000/svg" viewBox="0 0 412 334.82"><title>twitter</title><path id="twitter-icon" d="M412,39.63a168.87,168.87,0,0,1-48.55,13.31A84.78,84.78,0,0,0,400.62,6.18a169.23,169.23,0,0,1-53.68,20.51A84.41,84.41,0,0,0,285.24,0c-54.56,0-94.67,50.92-82.34,103.79A240,240,0,0,1,28.68,15.47,84.63,84.63,0,0,0,54.84,128.32a84.14,84.14,0,0,1-38.28-10.57c-.92,39.16,27.15,75.78,67.79,83.95a84.68,84.68,0,0,1-38.17,1.45,84.61,84.61,0,0,0,79,58.7A170,170,0,0,1,0,296.85a239.25,239.25,0,0,0,129.57,38c156.93,0,245.59-132.55,240.25-251.43A171.71,171.71,0,0,0,412,39.63Z"/></svg>