<svg id="Layer_1" data-name="Layer 1" xmlns="http://www.w3.org/2000/svg" viewBox="0 0 595.28 365.28">
    <defs>
        <style>
            .cls-1 {
                fill: #fff;
            }
        </style>
    </defs>
    <title>velo</title><path
        class="cls-1"
        d="M487,148.81a107.88,107.88,0,0,0-42.44,8.64L408,94.71l27.59-47.3A13.46,13.46,0,0,0,421.75,27.3a13.93,13.93,0,0,0-2.35-.23H365.28a13.52,13.52,0,0,0,0,27h35.08L384.57,81.18H226.49l31.58-54.12h12.52a13.53,13.53,0,0,0,0-27.06H202.93a13.53,13.53,0,0,0,0,27.06h23.8l-76.06,130.4A108.43,108.43,0,1,0,174,171.11l28.9-49.55,83,142.31c.1.16.21.3.32.46s.23.36.36.54.16.26.27.38a12.11,12.11,0,0,0,1.08,1.24l.13.15.37.34c.12.12.24.21.37.33.34.28.68.57,1.06.83.14.11.29.18.44.29l.34.21.14.1.06,0c.37.21.76.38,1.14.56l.14.07a2.79,2.79,0,0,0,.27.13.23.23,0,0,0,.1,0c.28.12.58.21.87.3s.54.2.82.27l.16,0,.3.06.52.11a13.46,13.46,0,0,0,2.43.26h82A108.24,108.24,0,1,0,487,148.81ZM189.41,257.05a81.15,81.15,0,1,1-52.53-76L96.55,250.24a13.53,13.53,0,1,0,23.37,13.63l40.33-69.13A81,81,0,0,1,189.41,257.05ZM297.64,230.2l-71.15-122h142.3Zm94.7-108.64,28.91,49.55a108.13,108.13,0,0,0-41.59,72.41H321.2ZM435,194.74l28.46,48.78H407A81.07,81.07,0,0,1,435,194.74Zm52,143.49a81.19,81.19,0,0,1-80-67.64h80.05a13.46,13.46,0,0,0,2.43-.26l.54-.11a13.17,13.17,0,0,0,2.24-.7,2.55,2.55,0,0,1,.26-.12c.45-.21.9-.42,1.35-.67.12-.07.21-.16.33-.23.42-.27.8-.56,1.2-.86s.65-.51.94-.79a10.64,10.64,0,0,0,.89-1c.28-.33.58-.65.83-1s.45-.74.67-1.13.43-.73.62-1.13.3-.83.45-1.23.28-.83.38-1.24.14-.82.2-1.23.13-1,.15-1.45c0-.14,0-.27,0-.4s-.06-.51-.07-.78c0-.5-.07-1-.15-1.48s-.18-.84-.29-1.27-.23-.83-.39-1.24a13,13,0,0,0-.61-1.35c-.13-.23-.2-.48-.33-.7l-40.34-69.16A81.18,81.18,0,1,1,487,338.23Z"/></svg>
