<svg id="Слой_1" data-name="Слой 1" xmlns="http://www.w3.org/2000/svg" viewBox="0 0 412 235.64"><title>vk</title><path id="vk-icon" d="M225.94,235.53c10.45,0,14.74-7,14.6-15.71-.53-32.91,12.26-50.62,35.35-27.53,25.55,25.55,30.84,43.24,61.85,43.24h54.94c43.22,0,4.71-43.37-25.74-71.63C338,137,336.63,136.4,361.56,104.05c31-40.14,71.39-91.86,35.61-91.86H328.82c-13.26,0-14.22,7.75-18.93,18.87-17.07,40.28-49.54,92.47-61.87,84.5-12.9-8.34-7-36.61-6-85.62.26-12.94.19-21.83-19.59-26.42C168.42-9,121.62,15.65,140.73,19.21c27,5,24.38,58.69,18.09,83.89-11,43.87-52.11-34.75-69.27-73.9-4.13-9.42-5.39-17-20.17-17H13.5c-10.77,0-16.05,4.93-12.29,14.94S48.21,133.86,99.33,189C146.64,240.12,193.4,235.53,225.94,235.53Z"/></svg>