
<svg version="1.1" id="Layer_1" xmlns="http://www.w3.org/2000/svg" xmlns:xlink="http://www.w3.org/1999/xlink" x="0px" y="0px"
	 viewBox="0 0 10.2 12" enable-background="new 0 0 10.2 12" xml:space="preserve">
<g>
	<defs>
		<rect id="SVGID_1_" width="10.2" height="12"/>
	</defs>
	<clipPath id="SVGID_2_">
		<use xlink:href="#SVGID_1_"  overflow="visible"/>
	</clipPath>
	<path fill="#8493a8" clip-path="url(#SVGID_2_)" d="M10.1,0C10.1,0,10.1,0,10.1,0l-4,4H1C0.4,4,0,4.4,0,5v1.7c0,0.5,0.4,1,1,1h1.2v4.3
		c0,0,0,0.1,0.1,0.1h1.9c0,0,0.1,0,0.1-0.1V7.6h1.8l3.9,3.9c0,0,0,0,0.1,0c0,0,0,0,0-0.1L10.1,0C10.2,0,10.1,0,10.1,0"/>
</g>
</svg>
